<svg aria-hidden="true" style="position: absolute; width: 0; height: 0; overflow: hidden;" version="1.1" xmlns="http://www.w3.org/2000/svg" xmlns:xlink="http://www.w3.org/1999/xlink">
<defs>
<symbol id="icon-beh" viewBox="0 0 33 32">
<path stroke-linejoin="miter" stroke-linecap="butt" stroke-miterlimit="4" stroke-width="0.4" d="M27.622 0.17h-22.544c-2.574 0-4.669 2.056-4.669 4.582v22.117c0 2.527 2.095 4.582 4.67 4.582h22.543c2.575 0 4.67-2.056 4.67-4.582v-22.117c0-2.527-2.096-4.582-4.67-4.582zM30.425 26.869c0 1.516-1.258 2.75-2.802 2.75h-22.544c-1.544 0-2.802-1.234-2.802-2.75v-22.117c0-1.516 1.257-2.75 2.802-2.75h22.543c1.545 0 2.802 1.234 2.802 2.75v22.117z"></path>
<path stroke-linejoin="miter" stroke-linecap="butt" stroke-miterlimit="4" stroke-width="0.4" d="M15.416 13.061c0-2.021-1.676-3.666-3.736-3.666h-5.605v12.83h5.605c2.060 0 3.736-1.644 3.736-3.666-0.002-1.098-0.492-2.082-1.264-2.746l-0.005-0.004c0.777-0.668 1.267-1.651 1.269-2.749v-0zM13.548 18.56c0 1.010-0.838 1.833-1.868 1.833h-3.736v-3.666h3.736c1.030 0 1.868 0.822 1.868 1.832zM7.944 14.894v-3.666h3.736c1.030 0 1.868 0.822 1.868 1.833s-0.838 1.834-1.868 1.834h-3.736zM21.955 13.061c-2.576 0-4.67 2.056-4.67 4.582s2.095 4.582 4.67 4.582c1.662 0 3.212-0.878 4.046-2.29l-1.618-0.918c-0.502 0.83-1.399 1.376-2.425 1.376-0.001 0-0.002 0-0.004 0h0c-0.004 0-0.008 0-0.012 0-1.2 0-2.224-0.754-2.624-1.814l-0.006-0.019h7.313v-0.917c0-2.526-2.095-4.582-4.67-4.582zM19.313 16.726c0.407-1.079 1.431-1.832 2.63-1.832 0.004 0 0.009 0 0.013 0h-0.001c1.218 0 2.257 0.766 2.642 1.832h-5.286zM18.218 9.395h7.473v1.833h-7.472v-1.832z"></path>
</symbol>
<symbol id="icon-in" viewBox="0 0 33 32">
<path stroke-linejoin="miter" stroke-linecap="butt" stroke-miterlimit="4" stroke-width="0.3902" d="M27.367 0.656h-22.024c-2.515 0-4.563 2.008-4.563 4.477v21.609c0 2.469 2.047 4.478 4.563 4.478h22.024c2.516 0 4.563-2.009 4.563-4.478v-21.609c0-2.469-2.046-4.477-4.563-4.477zM30.105 26.742c0 1.481-1.229 2.686-2.738 2.686h-22.024c-1.509 0-2.738-1.205-2.738-2.686v-21.609c0-1.481 1.228-2.686 2.738-2.686h22.024c1.509 0 2.738 1.205 2.738 2.686v21.609z"></path>
<path d="M24.921 22.809h-3.344v-5.495c0-0.379-0.028-0.754-0.125-1.124-0.4-1.524-2.126-1.435-2.813-0.713-0.345 0.363-0.57 0.773-0.58 1.281-0.002 0.121-0.009 0.242-0.009 0.362v5.687h-3.338v-10.195h3.336v1.367l0.027 0.012c0.024-0.031 0.048-0.062 0.072-0.095 0.335-0.457 0.719-0.862 1.229-1.136 0.57-0.306 1.186-0.409 1.827-0.39 0.695 0.020 1.353 0.173 1.947 0.54 0.76 0.471 1.224 1.161 1.495 1.987 0.212 0.645 0.281 1.309 0.282 1.982 0.002 1.936 0.001 3.874 0 5.811 0 0.037-0.003 0.076-0.005 0.119z"></path>
<path d="M24.921 22.809v0.023h0.022l0.002-0.022-0.023-0.002zM21.577 22.809h-0.023v0.023h0.023v-0.023zM21.577 17.314h0.001zM21.452 16.19v0.001zM18.639 15.478l0.018 0.016-0.018-0.016zM18.059 16.759v0zM18.050 17.121v0zM18.050 22.808v0.023h0.023v-0.023h-0.023zM14.711 22.808h-0.023v0.023h0.023v-0.023zM14.711 12.611v-0.023h-0.023v0.023h0.023zM18.047 12.611h0.023v-0.023h-0.023v0.023zM18.047 13.979h-0.023v0.016l0.014 0.007 0.009-0.023zM18.074 13.99l-0.009 0.022 0.017 0.008 0.011-0.016-0.019-0.014zM18.146 13.895v0zM19.375 12.759v0zM21.202 12.369l0.001-0.024v0.023zM23.148 12.909v0zM24.644 14.896l-0.023 0.008 0.023-0.008zM24.926 16.879v0zM24.926 22.69v0zM24.92 22.785h-3.344v0.048h3.344v-0.048zM21.601 22.809v-0.151h-0.048v0.152h0.047zM21.601 22.658v-5.343h-0.048v5.343h0.047zM21.601 17.314c0-0.38-0.029-0.757-0.126-1.129l-0.046 0.012c0.096 0.367 0.125 0.739 0.125 1.116h0.048zM21.474 16.185c-0.202-0.773-0.741-1.138-1.318-1.218-0.574-0.078-1.185 0.126-1.534 0.494l0.034 0.033c0.338-0.355 0.933-0.556 1.494-0.479 0.558 0.077 1.082 0.429 1.278 1.182l0.047-0.012zM18.622 15.461c-0.348 0.366-0.578 0.782-0.587 1.297h0.048c0.009-0.5 0.231-0.904 0.574-1.264l-0.035-0.033zM18.035 16.759c-0.002 0.119-0.009 0.242-0.009 0.362h0.048c0-0.12 0.007-0.239 0.009-0.361l-0.048-0.001zM18.025 17.121v5.531h0.048v-5.531h-0.047zM18.025 22.651v0.157h0.048v-0.155h-0.048zM18.049 22.784h-3.337v0.048h3.337v-0.047zM14.736 22.807v-10.196h-0.048v10.197h0.047zM14.712 12.635h3.334v-0.047h-3.334v0.047zM18.024 12.611v1.367h0.047v-1.367h-0.047zM18.038 14l0.027 0.012 0.018-0.044-0.027-0.012-0.019 0.044zM18.093 14.004c0.023-0.031 0.048-0.062 0.072-0.095l-0.039-0.028-0.071 0.095 0.038 0.028zM18.165 13.909c0.333-0.455 0.715-0.857 1.221-1.129l-0.023-0.042c-0.514 0.276-0.901 0.684-1.236 1.143l0.039 0.028zM19.387 12.78c0.565-0.304 1.177-0.406 1.815-0.388l0.002-0.048c-0.644-0.019-1.264 0.084-1.839 0.393l0.023 0.042zM21.201 12.393c0.691 0.020 1.346 0.172 1.934 0.537l0.026-0.041c-0.598-0.37-1.261-0.524-1.958-0.544l-0.002 0.047zM23.135 12.93c0.756 0.468 1.216 1.152 1.486 1.975l0.045-0.016c-0.273-0.83-0.739-1.525-1.506-2l-0.025 0.041zM24.621 14.904c0.211 0.641 0.28 1.303 0.281 1.975h0.047c0-0.675-0.070-1.342-0.283-1.99l-0.045 0.016zM24.902 16.879c0.002 1.936 0 3.874 0 5.811h0.048c0-1.937 0.002-3.874 0-5.811h-0.048zM24.902 22.69c0 0.037-0.003 0.073-0.005 0.118l0.047 0.003c0.003-0.043 0.006-0.082 0.006-0.121h-0.047z"></path>
<path d="M12.66 22.803v0h-3.296v-10.182h3.297v10.182zM11.155 7.545c0.52-0.001 0.963 0.18 1.276 0.491s0.499 0.749 0.5 1.265c0.002 0.51-0.184 0.946-0.502 1.254s-0.77 0.489-1.3 0.489c-1.033 0.001-1.769-0.726-1.772-1.747-0.002-1.022 0.745-1.751 1.797-1.752z"></path>
</symbol>
<symbol id="icon-inst" viewBox="0 0 32 32">
<path stroke-linejoin="miter" stroke-linecap="butt" stroke-miterlimit="4" stroke-width="0.8" d="M9.723 0.408h0.4v-0.008h12.64c4.746 0 8.621 3.9 8.621 8.681v13.119c0 4.781-3.874 8.681-8.612 8.681h-13.048c-4.748-0.001-8.628-3.894-8.628-8.666v-13.126c0-4.78 3.881-8.681 8.627-8.681zM2.688 9.096v13.126c0 3.91 3.13 7.061 7.036 7.061h13.048c3.893 0 7.021-3.152 7.021-7.076v-13.118c0-3.925-3.128-7.076-7.029-7.076h-13.040c-3.901 0-7.028 3.152-7.036 7.082zM25.018 6.022c-0-0.003-0-0.006-0-0.010 0-0.438 0.355-0.794 0.794-0.794 0.001 0 0.001 0 0.002 0h-0c0.442 0 0.796 0.352 0.796 0.803 0 0.003 0 0.006 0 0.010 0 0.438-0.355 0.793-0.793 0.793-0.001 0-0.002 0-0.003 0h0c-0 0-0.001 0-0.002 0-0.438 0-0.794-0.355-0.794-0.794 0-0.003 0-0.006 0-0.009v0zM8.278 15.644c0-4.412 3.59-8.020 7.97-8.020s7.97 3.608 7.97 8.020c0 4.412-3.59 8.019-7.97 8.019s-7.97-3.607-7.97-8.019zM22.626 15.644c0-3.557-2.838-6.414-6.378-6.414s-6.378 2.858-6.378 6.414c0 3.556 2.837 6.414 6.378 6.414s6.378-2.858 6.378-6.414z"></path>
</symbol>
<symbol id="icon-surf" viewBox="0 0 31 32">
<path stroke-linejoin="miter" stroke-linecap="butt" stroke-miterlimit="4" stroke-width="0.8" d="M24.195 5.575l0.25-0.31-0.31-0.252c-2.284-1.872-5.236-3.006-8.452-3.006-0.010 0-0.020 0-0.029 0h0.002c-1.128 0-2.221 0.155-3.256 0.41l-0.59 0.146 0.366 0.484c1.106 1.463 2.693 3.672 4.594 7.133l0.166 0.301 0.322-0.118c3.598-1.315 5.755-3.326 6.936-4.786zM10.443 3.402l-0.195-0.253-0.29 0.134c-3.584 1.697-6.26 4.814-7.331 8.605l-0.023 0.096-0.135 0.49 0.509 0.016c1.968 0.061 6.672-0.030 11.884-1.405l0.501-0.132-0.254-0.451c-2.022-3.585-3.722-5.88-4.665-7.101zM25.907 6.733l-0.309-0.36-0.303 0.364c-1.315 1.58-3.6 3.633-7.219 5.026l-0.411 0.158 0.197 0.394c0.675 1.291 1.424 2.947 2.093 4.643l0.133 0.383 0.115 0.3 0.318-0.048c1.372-0.215 2.954-0.338 4.564-0.338 0.81 0 1.613 0.031 2.408 0.092l-0.105-0.006c0.444 0.036 0.731 0.077 1.065 0.124l0.219 0.031 0.408 0.056 0.045-0.409c0.054-0.494 0.085-0.99 0.085-1.502 0-3.408-1.256-6.515-3.302-8.907zM16.252 12.7l-0.148-0.293-0.316 0.088c-6.132 1.714-11.534 1.662-13.216 1.595l-0.384-0.016-0.030 0.384-0.002 0.026c-0.030 0.373-0.059 0.756-0.059 1.162 0 4.098 1.802 7.755 4.642 10.256l0.296 0.261 0.264-0.292c0.904-0.997 1.826-1.917 2.792-2.791l0.034-0.030 0.002-0.002c2.182-1.979 4.991-4.074 8.050-4.989l0.418-0.125-0.161-0.406c-0.8-2.014-1.533-3.604-2.334-5.153l0.152 0.322zM23.794 18.872h-0.004c-0.956 0.048-1.828 0.129-2.689 0.247l0.16-0.018-0.479 0.063 0.152 0.459c0.734 2.223 1.341 4.578 1.734 7.028l0.1 0.624 0.521-0.357c2.535-1.752 4.42-4.286 5.319-7.25l0.025-0.096 0.134-0.458-0.474-0.053c-1.16-0.129-2.632-0.259-4.498-0.19zM19.3 19.803l-0.123-0.358-0.365 0.104c-2.688 0.77-5.499 2.765-7.63 4.689-1.030 0.922-1.862 1.798-2.528 2.514l-0.339 0.363 0.427 0.253c1.973 1.197 4.357 1.906 6.907 1.906h0c1.902 0 3.696-0.396 5.336-1.093l0.28-0.12-0.041-0.302c-0.386-2.796-1.064-5.461-1.924-7.956zM0.513 15.64c0-8.398 6.803-15.24 15.144-15.24 8.339 0 15.143 6.842 15.143 15.24s-6.803 15.24-15.144 15.24c-8.34 0-15.143-6.842-15.143-15.24z"></path>
</symbol>
</defs>
</svg>
