<svg aria-hidden="true" style="position: absolute; width: 0; height: 0; overflow: hidden;" version="1.1" xmlns="http://www.w3.org/2000/svg" xmlns:xlink="http://www.w3.org/1999/xlink">
<defs>
<symbol id="icon-aae" viewBox="0 0 27 32">
<path fill="#828282" style="fill: var(--color1, #828282)" d="M10.939 18.981h-0.561l-0.107 0.32h-0.34l0.578-1.554h0.297l0.582 1.554h-0.34l-0.108-0.32zM10.464 18.721h0.388l-0.195-0.582-0.193 0.582zM11.464 18.715c0-0.18 0.040-0.323 0.121-0.43s0.192-0.16 0.332-0.16c0.112 0 0.205 0.042 0.278 0.126v-0.589h0.31v1.639h-0.279l-0.015-0.123c-0.077 0.096-0.176 0.144-0.297 0.144-0.136 0-0.245-0.053-0.328-0.16-0.082-0.107-0.123-0.256-0.123-0.447zM11.772 18.737c0 0.108 0.019 0.191 0.056 0.249s0.093 0.086 0.164 0.086c0.095 0 0.162-0.040 0.202-0.121v-0.456c-0.038-0.080-0.105-0.12-0.2-0.12-0.149 0-0.223 0.12-0.223 0.362zM12.695 18.713c0-0.115 0.022-0.217 0.066-0.306 0.042-0.088 0.108-0.159 0.188-0.207l0.002-0.001c0.083-0.049 0.179-0.074 0.289-0.074 0.156 0 0.283 0.048 0.381 0.143s0.154 0.225 0.165 0.389l0.002 0.079c0 0.177-0.049 0.32-0.148 0.427s-0.232 0.16-0.398 0.16-0.3-0.053-0.399-0.16c-0.099-0.107-0.148-0.252-0.148-0.435v-0.014zM13.004 18.735c0 0.11 0.021 0.194 0.062 0.252s0.1 0.086 0.177 0.086c0.075 0 0.133-0.028 0.175-0.085s0.063-0.149 0.063-0.275c0-0.107-0.021-0.191-0.063-0.25s-0.101-0.088-0.177-0.088c-0.075 0-0.134 0.029-0.175 0.088s-0.062 0.149-0.062 0.272zM15.019 18.734c0 0.185-0.040 0.329-0.118 0.433s-0.189 0.155-0.331 0.155c-0.125 0-0.225-0.048-0.3-0.144l-0.014 0.123h-0.277v-1.639h0.308v0.588c0.071-0.083 0.165-0.125 0.281-0.125 0.141 0 0.251 0.052 0.331 0.156s0.12 0.249 0.12 0.436v0.017zM14.711 18.712c0-0.117-0.018-0.202-0.055-0.255s-0.092-0.081-0.165-0.081c-0.098 0-0.166 0.040-0.203 0.12v0.456c0.038 0.081 0.106 0.122 0.205 0.122s0.165-0.049 0.196-0.147c0.015-0.047 0.022-0.118 0.022-0.214zM15.742 19.322c-0.169 0-0.307-0.052-0.414-0.156s-0.159-0.242-0.159-0.415v-0.030c0-0.116 0.022-0.219 0.067-0.311 0.042-0.089 0.107-0.161 0.188-0.21l0.002-0.001c0.083-0.050 0.176-0.075 0.282-0.075 0.158 0 0.282 0.050 0.372 0.149s0.137 0.241 0.137 0.424v0.126h-0.735c0.010 0.075 0.040 0.136 0.090 0.181s0.114 0.068 0.191 0.068c0.119 0 0.211-0.043 0.278-0.129l0.152 0.17c-0.046 0.066-0.109 0.117-0.188 0.154-0.075 0.034-0.162 0.054-0.254 0.054-0.003 0-0.006-0-0.009-0h0zM15.706 18.374c-0.061 0-0.111 0.021-0.149 0.062s-0.062 0.1-0.073 0.177h0.429v-0.024c-0.001-0.068-0.020-0.121-0.055-0.158s-0.086-0.056-0.152-0.056zM8.16 21.478h-0.561l-0.107 0.32h-0.34l0.578-1.554h0.297l0.582 1.554h-0.34l-0.108-0.32zM7.685 21.219h0.389l-0.195-0.582-0.193 0.582zM8.817 21.798v-0.928h-0.172v-0.226h0.172v-0.098c0-0.129 0.037-0.23 0.111-0.301s0.179-0.108 0.313-0.108c0.043 0 0.095 0.007 0.157 0.021l-0.003 0.239c-0.026-0.006-0.056-0.010-0.087-0.010-0.002 0-0.005 0-0.007 0h0c-0.116 0-0.174 0.054-0.174 0.163v0.093h0.229v0.226h-0.229v0.928h-0.31zM9.886 20.36v0.284h0.197v0.226h-0.197v0.576c0 0.043 0.008 0.073 0.024 0.092s0.048 0.028 0.094 0.028c0.034 0 0.064-0.003 0.091-0.008v0.234c-0.056 0.018-0.119 0.028-0.186 0.028-0 0-0.001 0-0.001 0h0c-0.216 0-0.327-0.109-0.331-0.328v-0.622h-0.169v-0.226h0.169v-0.284h0.308zM10.786 21.819c-0.169 0-0.307-0.052-0.414-0.156s-0.159-0.242-0.159-0.415v-0.030c0-0.116 0.022-0.219 0.067-0.311 0.042-0.089 0.107-0.161 0.188-0.21l0.002-0.001c0.083-0.050 0.176-0.075 0.282-0.075 0.158 0 0.282 0.050 0.372 0.149s0.137 0.241 0.137 0.424v0.126h-0.735c0.010 0.075 0.040 0.136 0.090 0.181s0.114 0.068 0.191 0.068c0.119 0 0.211-0.043 0.278-0.129l0.151 0.17c-0.046 0.066-0.109 0.117-0.188 0.154-0.075 0.034-0.162 0.054-0.254 0.054-0.003 0-0.006-0-0.008-0h0zM10.751 20.872c-0.061 0-0.111 0.021-0.149 0.062s-0.062 0.1-0.073 0.177h0.429v-0.024c-0.001-0.068-0.020-0.121-0.055-0.158s-0.086-0.056-0.151-0.056zM12.086 20.933c-0.033-0.005-0.071-0.008-0.111-0.009h-0c-0.117 0-0.193 0.040-0.229 0.118v0.756h-0.308v-1.155h0.291l0.008 0.138c0.062-0.106 0.148-0.159 0.257-0.159 0.034 0 0.066 0.005 0.096 0.014l-0.004 0.297zM13.734 21.125h-0.614v0.416h0.721v0.257h-1.041v-1.554h1.039v0.259h-0.719v0.37h0.615v0.251zM14.074 21.798v-0.928h-0.172v-0.226h0.172v-0.098c0-0.129 0.037-0.23 0.111-0.301s0.179-0.108 0.313-0.108c0.043 0 0.095 0.007 0.157 0.021l-0.003 0.239c-0.026-0.006-0.056-0.010-0.087-0.010-0.002 0-0.005 0-0.007 0h0c-0.116 0-0.174 0.054-0.174 0.163v0.093h0.229v0.226h-0.229v0.928h-0.31zM14.857 21.798v-0.928h-0.172v-0.226h0.172v-0.098c0-0.129 0.037-0.23 0.111-0.301 0.075-0.072 0.179-0.108 0.313-0.108 0.043 0 0.095 0.007 0.157 0.021l-0.003 0.239c-0.026-0.006-0.056-0.010-0.087-0.010-0.002 0-0.005 0-0.007 0h0c-0.116 0-0.174 0.054-0.174 0.163v0.093h0.229v0.226h-0.229v0.928h-0.309zM16.062 21.819c-0.169 0-0.307-0.052-0.414-0.156s-0.159-0.242-0.159-0.415v-0.030c0-0.116 0.022-0.219 0.067-0.311 0.042-0.089 0.107-0.161 0.188-0.21l0.002-0.001c0.083-0.050 0.176-0.075 0.282-0.075 0.158 0 0.282 0.050 0.372 0.149s0.137 0.241 0.137 0.424v0.126h-0.735c0.010 0.075 0.040 0.136 0.090 0.181s0.114 0.068 0.191 0.068c0.119 0 0.212-0.043 0.279-0.129l0.151 0.17c-0.046 0.066-0.109 0.117-0.188 0.154-0.075 0.034-0.162 0.054-0.254 0.054-0.003 0-0.006-0-0.009-0h0zM16.027 20.872c-0.061 0-0.111 0.021-0.149 0.062s-0.062 0.1-0.073 0.177h0.429v-0.024c-0.001-0.068-0.020-0.121-0.055-0.158s-0.086-0.056-0.152-0.056zM17.193 21.571c0.057 0 0.103-0.016 0.139-0.047s0.054-0.073 0.056-0.125h0.289c-0 0.080-0.024 0.155-0.065 0.217l0.001-0.002c-0.043 0.065-0.101 0.117-0.17 0.15l-0.003 0.001c-0.073 0.036-0.153 0.053-0.241 0.053-0.165 0-0.295-0.052-0.391-0.157s-0.143-0.25-0.143-0.435v-0.020c0-0.178 0.047-0.32 0.142-0.426s0.224-0.159 0.389-0.159c0.144 0 0.26 0.041 0.347 0.124s0.132 0.191 0.133 0.328h-0.289c-0.001-0.060-0.020-0.108-0.056-0.145s-0.082-0.056-0.141-0.056c-0.072 0-0.126 0.026-0.163 0.079s-0.054 0.137-0.054 0.254v0.032c0 0.119 0.018 0.204 0.054 0.256s0.091 0.078 0.165 0.078zM18.221 20.36v0.284h0.197v0.226h-0.197v0.576c0 0.043 0.008 0.073 0.025 0.092s0.048 0.028 0.094 0.028c0.034 0 0.064-0.003 0.091-0.008v0.234c-0.055 0.018-0.119 0.028-0.186 0.028-0 0-0.001 0-0.001 0h0c-0.216 0-0.327-0.109-0.331-0.328v-0.622h-0.169v-0.226h0.169v-0.284h0.308zM19.216 21.479c0-0.038-0.019-0.067-0.057-0.089s-0.097-0.042-0.179-0.059c-0.275-0.058-0.412-0.174-0.412-0.35 0-0.102 0.042-0.188 0.127-0.256s0.197-0.104 0.334-0.104c0.147 0 0.264 0.035 0.351 0.104s0.132 0.159 0.132 0.269h-0.308c0-0.002 0-0.003 0-0.005 0-0.040-0.016-0.077-0.043-0.104v0c-0.028-0.029-0.073-0.044-0.133-0.044-0.052 0-0.092 0.012-0.12 0.035-0.026 0.021-0.043 0.052-0.043 0.088 0 0.001 0 0.001 0 0.002v-0c0 0.034 0.016 0.062 0.048 0.083s0.088 0.039 0.164 0.054c0.077 0.015 0.142 0.032 0.194 0.051 0.163 0.060 0.244 0.163 0.244 0.311 0 0.105-0.045 0.191-0.136 0.256s-0.207 0.097-0.35 0.097c-0.097 0-0.183-0.017-0.258-0.051s-0.133-0.082-0.176-0.142c-0.040-0.054-0.064-0.122-0.064-0.195v-0h0.292c0.003 0.055 0.023 0.097 0.061 0.126s0.088 0.044 0.152 0.044c0.059 0 0.104-0.011 0.133-0.033 0.028-0.019 0.046-0.051 0.046-0.087 0-0 0-0.001 0-0.001v0z"></path>
<path fill="#000" style="fill: var(--color2, #000)" d="M6.846 0.587h13.034v12.567h-13.034v-12.567z"></path>
<path fill="#d8a1ff" style="fill: var(--color3, #d8a1ff)" d="M6.846 0.587h13.034v12.567h-13.034v-12.567zM6.253 13.741h14.221v-13.741h-14.221v13.741zM16.314 6.623c0.302 0 0.41 0 0.439-0.011 0-0.042 0.011-0.071 0.011-0.099 0-0.316-0.154-0.903-0.769-0.903-0.57 0-0.812 0.494-0.871 1.016h1.19v-0.003zM15.113 7.428c0.011 0.793 0.39 1.326 1.293 1.326 0.35 0 0.652-0.048 0.965-0.181 0.043-0.017 0.071-0.011 0.071 0.042v0.734c0 0.059-0.017 0.087-0.060 0.119-0.313 0.152-0.706 0.223-1.19 0.223-1.563 0-2.15-1.146-2.15-2.419 0-1.386 0.723-2.52 1.996-2.52 1.293 0 1.743 1.075 1.743 1.95 0 0.282-0.017 0.511-0.048 0.624-0.011 0.048-0.028 0.065-0.077 0.076-0.12 0.017-0.467 0.042-0.988 0.042h-1.552v-0.017h-0.003zM11.934 6.829c-0.165-0.652-0.569-2.071-0.718-2.76h-0.011c-0.125 0.686-0.45 1.848-0.692 2.76h1.421zM10.271 7.781l-0.467 1.755c-0.011 0.048-0.028 0.065-0.088 0.065h-0.874c-0.060 0-0.071-0.017-0.060-0.087l1.683-5.831c0.028-0.104 0.048-0.189 0.060-0.482 0-0.042 0.017-0.059 0.048-0.059h1.244c0.043 0 0.060 0.011 0.071 0.059l1.882 6.324c0.011 0.048 0 0.076-0.048 0.076h-0.977c-0.048 0-0.077-0.017-0.088-0.059l-0.487-1.761h-1.899z"></path>
<path fill="#070707" style="fill: var(--color4, #070707)" d="M1.93 28.409c0.048-0.142 0.248-0.142 0.296 0l0.283 0.845c0.021 0.062 0.079 0.107 0.148 0.107h0.905c0.152 0 0.214 0.196 0.090 0.284l-0.724 0.511c-0.040 0.029-0.066 0.075-0.066 0.128 0 0.018 0.003 0.035 0.008 0.051l-0-0.001 0.278 0.832c0.048 0.143-0.115 0.264-0.238 0.177l-0.743-0.524c-0.025-0.018-0.056-0.028-0.090-0.028s-0.065 0.011-0.090 0.029l0-0-0.742 0.524c-0.123 0.087-0.286-0.034-0.238-0.177l0.279-0.832c0.005-0.015 0.008-0.032 0.008-0.050 0-0.052-0.026-0.099-0.066-0.127l-0-0-0.724-0.511c-0.125-0.088-0.062-0.284 0.090-0.284h0.905c0.068-0 0.127-0.044 0.148-0.106l0-0.001 0.283-0.845zM7.525 28.409c0.047-0.142 0.248-0.142 0.296 0l0.283 0.845c0.021 0.062 0.079 0.107 0.148 0.107h0.905c0.152 0 0.214 0.196 0.090 0.284l-0.724 0.511c-0.040 0.029-0.066 0.075-0.066 0.128 0 0.018 0.003 0.035 0.008 0.051l-0-0.001 0.278 0.832c0.048 0.143-0.115 0.264-0.238 0.177l-0.742-0.524c-0.025-0.018-0.056-0.028-0.090-0.028s-0.065 0.011-0.090 0.029l0-0-0.742 0.524c-0.123 0.087-0.286-0.034-0.238-0.177l0.278-0.832c0.005-0.015 0.008-0.032 0.008-0.050 0-0.052-0.026-0.099-0.066-0.127l-0-0-0.724-0.511c-0.124-0.088-0.062-0.284 0.090-0.284h0.905c0.068-0 0.127-0.044 0.148-0.106l0-0.001 0.283-0.845zM13.12 28.409c0.048-0.142 0.248-0.142 0.296 0l0.283 0.845c0.021 0.062 0.080 0.107 0.148 0.107 0 0 0 0 0 0h0.905c0.152 0 0.214 0.196 0.090 0.284l-0.724 0.511c-0.040 0.029-0.066 0.075-0.066 0.128 0 0.018 0.003 0.035 0.008 0.051l-0-0.001 0.279 0.832c0.048 0.143-0.115 0.264-0.238 0.177l-0.742-0.524c-0.025-0.018-0.056-0.028-0.090-0.028s-0.065 0.011-0.090 0.029l0-0-0.742 0.524c-0.123 0.087-0.286-0.034-0.238-0.177l0.278-0.832c0.005-0.015 0.008-0.032 0.008-0.050 0-0.052-0.026-0.099-0.066-0.127l-0-0-0.724-0.511c-0.124-0.088-0.062-0.284 0.090-0.284h0.905c0.068-0 0.127-0.044 0.148-0.106l0-0.001 0.283-0.845zM18.715 28.409c0.048-0.142 0.248-0.142 0.296 0l0.283 0.845c0.021 0.062 0.079 0.107 0.148 0.107h0.905c0.152 0 0.214 0.196 0.090 0.284l-0.724 0.511c-0.040 0.029-0.066 0.075-0.066 0.128 0 0.018 0.003 0.035 0.008 0.051l-0-0.001 0.278 0.832c0.048 0.143-0.115 0.264-0.238 0.177l-0.742-0.524c-0.025-0.018-0.056-0.028-0.090-0.028s-0.065 0.011-0.090 0.029l0-0-0.742 0.524c-0.123 0.087-0.286-0.034-0.238-0.177l0.278-0.832c0.005-0.015 0.008-0.032 0.008-0.050 0-0.052-0.026-0.099-0.066-0.127l-0-0-0.724-0.511c-0.124-0.088-0.062-0.284 0.090-0.284h0.905c0.068-0 0.127-0.044 0.148-0.106l0-0.001 0.283-0.845z"></path>
<path fill="#e5e5e5" style="fill: var(--color5, #e5e5e5)" d="M24.31 28.409c0.048-0.142 0.248-0.142 0.296 0l0.283 0.845c0.021 0.062 0.079 0.107 0.148 0.107h0.905c0.152 0 0.214 0.196 0.090 0.284l-0.724 0.511c-0.040 0.029-0.066 0.075-0.066 0.128 0 0.018 0.003 0.035 0.008 0.051l-0-0.001 0.278 0.832c0.048 0.143-0.115 0.264-0.238 0.177l-0.742-0.524c-0.025-0.018-0.056-0.028-0.090-0.028s-0.065 0.011-0.090 0.029l0-0-0.742 0.524c-0.123 0.087-0.286-0.034-0.238-0.177l0.279-0.832c0.005-0.015 0.008-0.032 0.008-0.050 0-0.052-0.026-0.099-0.066-0.127l-0-0-0.724-0.511c-0.125-0.088-0.062-0.284 0.090-0.284h0.905c0.067 0 0.127-0.043 0.148-0.107l0.283-0.845z"></path>
</symbol>
<symbol id="icon-ai" viewBox="0 0 27 32">
<path fill="#828282" style="fill: var(--color1, #828282)" d="M10.888 19.022h-0.561l-0.107 0.32h-0.34l0.578-1.554h0.297l0.582 1.554h-0.34l-0.108-0.32zM10.413 18.763h0.389l-0.195-0.581-0.193 0.581zM11.413 18.756c0-0.18 0.040-0.323 0.121-0.43s0.192-0.16 0.332-0.16c0.112 0 0.205 0.042 0.278 0.126v-0.589h0.309v1.639h-0.278l-0.015-0.123c-0.077 0.096-0.176 0.144-0.297 0.144-0.136 0-0.245-0.053-0.328-0.16s-0.123-0.256-0.123-0.447zM11.722 18.779c0 0.108 0.019 0.191 0.056 0.249s0.093 0.086 0.164 0.086c0.095 0 0.162-0.040 0.202-0.12v-0.456c-0.038-0.080-0.105-0.121-0.2-0.121-0.149 0-0.223 0.121-0.223 0.362zM12.645 18.754c0-0.115 0.022-0.217 0.066-0.306 0.042-0.088 0.108-0.159 0.188-0.207l0.002-0.001c0.083-0.049 0.18-0.074 0.289-0.074 0.156 0 0.283 0.048 0.381 0.143s0.154 0.225 0.165 0.388l0.002 0.079c0 0.177-0.049 0.319-0.148 0.427s-0.232 0.16-0.398 0.16c-0.167 0-0.3-0.053-0.399-0.16s-0.148-0.252-0.148-0.435v-0.014zM12.953 18.776c0 0.11 0.021 0.194 0.062 0.252s0.1 0.086 0.177 0.086c0.075 0 0.133-0.028 0.175-0.085s0.063-0.149 0.063-0.275c0-0.108-0.021-0.191-0.063-0.25s-0.101-0.088-0.177-0.088c-0.075 0-0.134 0.029-0.175 0.088s-0.062 0.149-0.062 0.272zM14.969 18.775c0 0.185-0.040 0.329-0.119 0.433s-0.189 0.155-0.331 0.155c-0.125 0-0.225-0.048-0.3-0.144l-0.014 0.123h-0.277v-1.639h0.308v0.588c0.071-0.083 0.165-0.125 0.281-0.125 0.141 0 0.251 0.052 0.331 0.156s0.12 0.249 0.12 0.436v0.017zM14.66 18.753c0-0.117-0.018-0.202-0.055-0.255s-0.092-0.081-0.165-0.081c-0.098 0-0.166 0.040-0.203 0.121v0.456c0.038 0.081 0.106 0.122 0.205 0.122s0.165-0.049 0.196-0.147c0.015-0.047 0.022-0.118 0.022-0.214zM15.691 19.363c-0.169 0-0.307-0.052-0.414-0.156s-0.159-0.242-0.159-0.415v-0.030c0-0.116 0.022-0.219 0.067-0.31 0.042-0.089 0.107-0.161 0.188-0.21l0.002-0.001c0.083-0.050 0.176-0.075 0.282-0.075 0.158 0 0.282 0.050 0.372 0.149s0.137 0.241 0.137 0.424v0.126h-0.735c0.010 0.076 0.040 0.136 0.090 0.182s0.114 0.068 0.191 0.068c0.119 0 0.212-0.043 0.279-0.129l0.151 0.17c-0.048 0.066-0.111 0.119-0.185 0.152l-0.003 0.001c-0.075 0.034-0.162 0.055-0.254 0.055-0.003 0-0.006-0-0.009-0h0zM15.656 18.416c-0.061 0-0.111 0.021-0.149 0.062s-0.062 0.1-0.073 0.177h0.429v-0.024c-0.001-0.068-0.020-0.121-0.055-0.158s-0.086-0.056-0.152-0.056zM9.018 21.84h-0.32v-1.554h0.32v1.554zM9.621 21.84h-0.309v-1.639h0.309v1.639zM10.201 21.84h-0.31v-1.639h0.31v1.639zM11.148 21.722c-0.076 0.093-0.181 0.139-0.316 0.139-0.124 0-0.219-0.036-0.284-0.107s-0.098-0.175-0.099-0.313v-0.756h0.308v0.746c0 0.12 0.055 0.18 0.164 0.18 0.105 0 0.176-0.036 0.215-0.109v-0.817h0.31v1.154h-0.29l-0.008-0.117zM12.304 21.521c0-0.038-0.019-0.067-0.056-0.088s-0.097-0.042-0.179-0.059c-0.275-0.058-0.412-0.174-0.412-0.35 0-0.103 0.042-0.188 0.127-0.256s0.197-0.104 0.334-0.104c0.147 0 0.264 0.035 0.351 0.104s0.132 0.159 0.132 0.269h-0.308c0-0.002 0-0.003 0-0.005 0-0.041-0.016-0.077-0.043-0.104v0c-0.029-0.029-0.073-0.044-0.133-0.044-0.052 0-0.092 0.012-0.12 0.035-0.026 0.021-0.043 0.052-0.043 0.088 0 0.001 0 0.001 0 0.002v-0c0 0.034 0.016 0.062 0.048 0.083s0.087 0.039 0.164 0.054c0.077 0.015 0.142 0.032 0.194 0.051 0.163 0.060 0.244 0.163 0.244 0.31 0 0.105-0.045 0.191-0.136 0.256s-0.207 0.097-0.35 0.097c-0.097 0-0.183-0.017-0.258-0.051s-0.133-0.082-0.176-0.142c-0.040-0.054-0.064-0.122-0.064-0.195v-0h0.292c0.003 0.055 0.023 0.097 0.061 0.126s0.088 0.044 0.151 0.044c0.059 0 0.104-0.011 0.133-0.033 0.028-0.019 0.046-0.051 0.046-0.087 0-0.001 0-0.001 0-0.002v0zM13.173 20.401v0.284h0.197v0.226h-0.197v0.576c0 0.043 0.008 0.073 0.024 0.092s0.048 0.028 0.094 0.028c0.034 0 0.064-0.003 0.091-0.008v0.234c-0.055 0.018-0.119 0.028-0.185 0.028-0 0-0.001 0-0.001 0h0c-0.216 0-0.326-0.109-0.331-0.328v-0.622h-0.169v-0.226h0.169v-0.284h0.308zM14.191 20.974c-0.033-0.005-0.071-0.008-0.11-0.008h-0c-0.117 0-0.193 0.039-0.229 0.118v0.756h-0.308v-1.154h0.291l0.009 0.138c0.062-0.106 0.148-0.159 0.257-0.159 0.034 0 0.066 0.005 0.096 0.014l-0.004 0.297zM14.977 21.84c-0.015-0.030-0.026-0.065-0.031-0.102l-0-0.002c-0.075 0.083-0.172 0.125-0.291 0.125-0.113 0-0.207-0.033-0.282-0.098-0.068-0.058-0.111-0.144-0.111-0.241 0-0.002 0-0.005 0-0.007v0c0-0.122 0.045-0.216 0.136-0.282s0.222-0.099 0.394-0.099h0.142v-0.066c0-0.053-0.014-0.096-0.042-0.128s-0.070-0.048-0.129-0.048c-0.052 0-0.093 0.012-0.123 0.037s-0.044 0.059-0.044 0.102h-0.308c0-0.067 0.021-0.129 0.062-0.186s0.1-0.101 0.175-0.133c0.072-0.031 0.156-0.049 0.245-0.049 0.003 0 0.007 0 0.010 0h-0.001c0.142 0 0.255 0.036 0.338 0.108s0.126 0.172 0.126 0.301v0.5c0.001 0.11 0.016 0.192 0.046 0.249v0.018h-0.312zM14.722 21.625c0.045 0 0.087-0.010 0.126-0.030s0.067-0.048 0.085-0.082v-0.198h-0.115c-0.155 0-0.237 0.053-0.247 0.16l-0.001 0.018c0 0.039 0.014 0.070 0.041 0.095s0.064 0.037 0.111 0.037zM15.849 20.401v0.284h0.197v0.226h-0.197v0.576c0 0.043 0.008 0.073 0.025 0.092s0.048 0.028 0.094 0.028c0.034 0 0.064-0.003 0.091-0.008v0.234c-0.055 0.018-0.119 0.028-0.185 0.028-0 0-0.001 0-0.001 0h0c-0.216 0-0.327-0.109-0.331-0.328v-0.622h-0.169v-0.226h0.169v-0.284h0.308zM16.138 21.252c0-0.115 0.022-0.217 0.066-0.306 0.042-0.088 0.107-0.159 0.188-0.207l0.002-0.001c0.083-0.049 0.18-0.074 0.289-0.074 0.156 0 0.283 0.048 0.381 0.143s0.154 0.225 0.165 0.388l0.002 0.079c0 0.177-0.049 0.319-0.148 0.427s-0.232 0.16-0.398 0.16c-0.167 0-0.3-0.053-0.399-0.16s-0.148-0.252-0.148-0.435v-0.014zM16.447 21.274c0 0.11 0.021 0.194 0.062 0.252s0.1 0.086 0.177 0.086c0.075 0 0.133-0.028 0.175-0.085s0.063-0.149 0.063-0.275c0-0.108-0.021-0.191-0.063-0.25s-0.101-0.088-0.177-0.088c-0.075 0-0.134 0.029-0.175 0.088s-0.062 0.149-0.062 0.272zM18.071 20.974c-0.033-0.005-0.071-0.008-0.111-0.008h-0c-0.117 0-0.193 0.039-0.229 0.118v0.756h-0.308v-1.154h0.291l0.008 0.138c0.062-0.106 0.148-0.159 0.257-0.159 0.034 0 0.066 0.005 0.096 0.014l-0.004 0.297z"></path>
<path fill="#000" style="fill: var(--color2, #000)" d="M6.789 0.587h13.034v12.567h-13.034v-12.567z"></path>
<path fill="#ff7f18" style="fill: var(--color6, #ff7f18)" d="M6.789 0.587h13.034v12.567h-13.034v-12.567zM6.196 13.741h14.222v-13.741h-14.222v13.741zM15.511 4.899c0-0.048 0.017-0.071 0.071-0.071h0.931c0.048 0 0.071 0.017 0.071 0.071v4.634c0 0.048-0.011 0.071-0.071 0.071h-0.92c-0.060 0-0.077-0.028-0.077-0.076v-4.628h-0.006zM15.446 3.564c0-0.375 0.268-0.598 0.604-0.598 0.362 0 0.604 0.24 0.604 0.598 0 0.387-0.253 0.598-0.615 0.598-0.342 0.003-0.592-0.209-0.592-0.598zM12.78 6.829c-0.165-0.652-0.558-2.071-0.706-2.76h-0.011c-0.125 0.686-0.439 1.848-0.686 2.76h1.404zM11.134 7.78l-0.467 1.761c-0.011 0.048-0.028 0.059-0.088 0.059h-0.871c-0.060 0-0.071-0.017-0.060-0.087l1.683-5.836c0.028-0.105 0.048-0.2 0.060-0.488 0-0.042 0.017-0.059 0.048-0.059h1.244c0.043 0 0.060 0.011 0.071 0.059l1.885 6.336c0.011 0.048 0 0.076-0.048 0.076h-0.982c-0.048 0-0.077-0.011-0.088-0.054l-0.487-1.767h-1.899z"></path>
<path fill="#070707" style="fill: var(--color4, #070707)" d="M1.93 28.409c0.048-0.142 0.248-0.142 0.296 0l0.283 0.845c0.021 0.062 0.079 0.107 0.148 0.107h0.905c0.152 0 0.214 0.196 0.090 0.284l-0.724 0.511c-0.040 0.029-0.066 0.075-0.066 0.128 0 0.018 0.003 0.035 0.008 0.051l-0-0.001 0.278 0.832c0.048 0.143-0.115 0.264-0.238 0.177l-0.743-0.524c-0.025-0.018-0.056-0.028-0.090-0.028s-0.065 0.011-0.090 0.029l0-0-0.742 0.524c-0.123 0.087-0.286-0.034-0.238-0.177l0.279-0.832c0.005-0.015 0.008-0.032 0.008-0.050 0-0.052-0.026-0.099-0.066-0.127l-0-0-0.724-0.511c-0.125-0.088-0.062-0.284 0.090-0.284h0.905c0.068-0 0.127-0.044 0.148-0.106l0-0.001 0.283-0.845zM7.525 28.409c0.047-0.142 0.248-0.142 0.296 0l0.283 0.845c0.021 0.062 0.079 0.107 0.148 0.107h0.905c0.152 0 0.214 0.196 0.090 0.284l-0.724 0.511c-0.040 0.029-0.066 0.075-0.066 0.128 0 0.018 0.003 0.035 0.008 0.051l-0-0.001 0.278 0.832c0.048 0.143-0.115 0.264-0.238 0.177l-0.742-0.524c-0.025-0.018-0.056-0.028-0.090-0.028s-0.065 0.011-0.090 0.029l0-0-0.742 0.524c-0.123 0.087-0.286-0.034-0.238-0.177l0.278-0.832c0.005-0.015 0.008-0.032 0.008-0.050 0-0.052-0.026-0.099-0.066-0.127l-0-0-0.724-0.511c-0.124-0.088-0.062-0.284 0.090-0.284h0.905c0.068-0 0.127-0.044 0.148-0.106l0-0.001 0.283-0.845zM13.12 28.409c0.048-0.142 0.248-0.142 0.296 0l0.283 0.845c0.021 0.062 0.080 0.107 0.148 0.107 0 0 0 0 0 0h0.905c0.152 0 0.214 0.196 0.090 0.284l-0.724 0.511c-0.040 0.029-0.066 0.075-0.066 0.128 0 0.018 0.003 0.035 0.008 0.051l-0-0.001 0.279 0.832c0.048 0.143-0.115 0.264-0.238 0.177l-0.742-0.524c-0.025-0.018-0.056-0.028-0.090-0.028s-0.065 0.011-0.090 0.029l0-0-0.742 0.524c-0.123 0.087-0.286-0.034-0.238-0.177l0.278-0.832c0.005-0.015 0.008-0.032 0.008-0.050 0-0.052-0.026-0.099-0.066-0.127l-0-0-0.724-0.511c-0.124-0.088-0.062-0.284 0.090-0.284h0.905c0.068-0 0.127-0.044 0.148-0.106l0-0.001 0.283-0.845z"></path>
<path fill="#e5e5e5" style="fill: var(--color5, #e5e5e5)" d="M18.715 28.409c0.048-0.142 0.248-0.142 0.296 0l0.283 0.845c0.021 0.062 0.079 0.107 0.148 0.107h0.905c0.152 0 0.214 0.196 0.090 0.284l-0.724 0.511c-0.040 0.029-0.066 0.075-0.066 0.128 0 0.018 0.003 0.035 0.008 0.051l-0-0.001 0.278 0.832c0.048 0.143-0.115 0.264-0.238 0.177l-0.742-0.524c-0.025-0.018-0.056-0.028-0.090-0.028s-0.065 0.011-0.090 0.029l0-0-0.742 0.524c-0.123 0.087-0.286-0.034-0.238-0.177l0.278-0.832c0.005-0.015 0.008-0.032 0.008-0.050 0-0.052-0.026-0.099-0.066-0.127l-0-0-0.724-0.511c-0.124-0.088-0.062-0.284 0.090-0.284h0.905c0.068-0 0.127-0.044 0.148-0.106l0-0.001 0.283-0.845zM24.31 28.409c0.048-0.142 0.248-0.142 0.296 0l0.283 0.845c0.021 0.062 0.079 0.107 0.148 0.107h0.905c0.152 0 0.214 0.196 0.090 0.284l-0.724 0.511c-0.040 0.029-0.066 0.075-0.066 0.128 0 0.018 0.003 0.035 0.008 0.051l-0-0.001 0.278 0.832c0.048 0.143-0.115 0.264-0.238 0.177l-0.742-0.524c-0.025-0.018-0.056-0.028-0.090-0.028s-0.065 0.011-0.090 0.029l0-0-0.742 0.524c-0.123 0.087-0.286-0.034-0.238-0.177l0.279-0.832c0.005-0.015 0.008-0.032 0.008-0.050 0-0.052-0.026-0.099-0.066-0.127l-0-0-0.724-0.511c-0.125-0.088-0.062-0.284 0.090-0.284h0.905c0.067 0 0.127-0.043 0.148-0.107l0.283-0.845z"></path>
</symbol>
<symbol id="icon-ap" viewBox="0 0 27 32">
<path fill="#000" style="fill: var(--color2, #000)" d="M6.732 0.586h13.019v12.542h-13.019v-12.542z"></path>
<path fill="#31c5f0" style="fill: var(--color7, #31c5f0)" d="M6.732 0.586h13.019v12.542h-13.019v-12.542zM6.14 13.714h14.2v-13.714h-14.2v13.714zM15.715 5.628c-0.467 0-0.626 0.234-0.626 0.428 0 0.212 0.105 0.358 0.734 0.679 0.928 0.445 1.218 0.874 1.218 1.499 0 0.939-0.723 1.443-1.699 1.443-0.515 0-0.959-0.104-1.212-0.251-0.043-0.017-0.048-0.048-0.048-0.093v-0.865c0-0.059 0.028-0.076 0.071-0.048 0.373 0.24 0.8 0.347 1.189 0.347 0.467 0 0.663-0.194 0.663-0.456 0-0.211-0.137-0.397-0.734-0.705-0.839-0.397-1.189-0.8-1.189-1.477 0-0.755 0.598-1.384 1.633-1.384 0.509 0 0.865 0.076 1.059 0.164 0.048 0.028 0.060 0.076 0.060 0.118v0.803c0 0.048-0.028 0.076-0.088 0.059-0.262-0.163-0.646-0.262-1.030-0.262zM10.627 6.325c0.137 0.011 0.242 0.011 0.478 0.011 0.691 0 1.343-0.24 1.343-1.172 0-0.744-0.467-1.119-1.255-1.119-0.236 0-0.461 0.011-0.569 0.017l0.003 2.263zM9.572 3.213c0-0.042 0.082-0.070 0.131-0.070 0.379-0.017 0.942-0.028 1.525-0.028 1.639 0 2.28 0.891 2.28 2.026 0 1.488-1.090 2.128-2.427 2.128-0.225 0-0.302-0.011-0.461-0.011v2.249c0 0.048-0.017 0.071-0.071 0.071h-0.905c-0.048 0-0.071-0.017-0.071-0.071v-6.293z"></path>
<path fill="#828282" style="fill: var(--color1, #828282)" d="M11.023 19.178h-0.561l-0.107 0.32h-0.34l0.578-1.554h0.297l0.582 1.554h-0.34l-0.108-0.32zM10.549 18.919h0.388l-0.195-0.581-0.193 0.581zM11.548 18.913c0-0.18 0.040-0.323 0.12-0.43s0.192-0.16 0.332-0.16c0.112 0 0.205 0.042 0.279 0.126v-0.589h0.309v1.639h-0.278l-0.015-0.123c-0.077 0.096-0.176 0.144-0.297 0.144-0.136 0-0.245-0.053-0.328-0.16s-0.123-0.256-0.123-0.447zM11.857 18.935c0 0.108 0.019 0.191 0.056 0.249s0.092 0.086 0.164 0.086c0.095 0 0.162-0.040 0.202-0.12v-0.456c-0.039-0.080-0.105-0.121-0.2-0.121-0.149 0-0.223 0.121-0.223 0.362zM12.78 18.911c0-0.115 0.022-0.217 0.066-0.306 0.042-0.088 0.107-0.159 0.188-0.207l0.002-0.001c0.083-0.049 0.18-0.074 0.289-0.074 0.156 0 0.283 0.048 0.381 0.143s0.154 0.225 0.165 0.388l0.002 0.079c0 0.177-0.049 0.319-0.148 0.427s-0.232 0.16-0.398 0.16c-0.166 0-0.299-0.053-0.399-0.16s-0.148-0.252-0.148-0.435v-0.014zM13.088 18.933c0 0.11 0.021 0.194 0.062 0.252s0.1 0.086 0.177 0.086c0.075 0 0.133-0.028 0.175-0.085s0.063-0.149 0.063-0.275c0-0.108-0.021-0.191-0.063-0.25s-0.101-0.088-0.177-0.088c-0.075 0-0.134 0.029-0.175 0.088s-0.062 0.149-0.062 0.272zM15.104 18.932c0 0.185-0.040 0.329-0.118 0.433s-0.189 0.155-0.331 0.155c-0.125 0-0.225-0.048-0.3-0.144l-0.014 0.123h-0.277v-1.639h0.308v0.588c0.071-0.083 0.165-0.125 0.281-0.125 0.141 0 0.251 0.052 0.331 0.156s0.12 0.249 0.12 0.436v0.017zM14.796 18.91c0-0.117-0.019-0.202-0.056-0.255s-0.092-0.081-0.165-0.081c-0.098 0-0.166 0.040-0.203 0.121v0.456c0.038 0.081 0.106 0.122 0.205 0.122s0.165-0.049 0.196-0.147c0.015-0.047 0.022-0.118 0.022-0.214zM15.826 19.52c-0.169 0-0.307-0.052-0.414-0.156s-0.159-0.242-0.159-0.415v-0.030c0-0.116 0.022-0.219 0.067-0.31 0.042-0.089 0.107-0.161 0.188-0.21l0.002-0.001c0.082-0.050 0.176-0.075 0.282-0.075 0.158 0 0.282 0.050 0.372 0.149s0.137 0.241 0.137 0.424v0.126h-0.735c0.010 0.076 0.040 0.136 0.090 0.182s0.114 0.068 0.191 0.068c0.119 0 0.212-0.043 0.278-0.129l0.152 0.17c-0.048 0.066-0.111 0.119-0.185 0.152l-0.003 0.001c-0.075 0.034-0.162 0.055-0.254 0.055-0.003 0-0.006-0-0.009-0h0zM15.791 18.572c-0.061 0-0.111 0.021-0.149 0.062s-0.062 0.1-0.073 0.177h0.429v-0.024c-0.001-0.068-0.020-0.121-0.056-0.158s-0.086-0.056-0.151-0.056zM8.329 21.449v0.547h-0.32v-1.554h0.606c0.117 0 0.219 0.021 0.307 0.064s0.157 0.104 0.205 0.182c0.048 0.078 0.072 0.168 0.072 0.268 0 0.152-0.052 0.272-0.157 0.361s-0.248 0.131-0.432 0.131h-0.281zM8.329 21.189h0.286c0.085 0 0.149-0.020 0.193-0.060s0.067-0.097 0.067-0.171c0-0.076-0.022-0.138-0.067-0.185s-0.107-0.071-0.186-0.073h-0.293v0.488zM9.7 20.967c0.082-0.098 0.185-0.147 0.308-0.147 0.25 0 0.377 0.145 0.381 0.436v0.739h-0.308v-0.731c0-0.066-0.014-0.115-0.043-0.146s-0.076-0.048-0.142-0.048c-0.090 0-0.156 0.035-0.196 0.105v0.821h-0.308v-1.639h0.308v0.61zM10.574 21.408c0-0.115 0.022-0.217 0.066-0.306 0.042-0.088 0.107-0.159 0.188-0.207l0.002-0.001c0.083-0.049 0.18-0.074 0.289-0.074 0.156 0 0.283 0.048 0.381 0.143s0.154 0.225 0.165 0.388l0.002 0.079c0 0.177-0.049 0.319-0.148 0.427s-0.232 0.16-0.398 0.16c-0.167 0-0.3-0.053-0.399-0.16s-0.148-0.252-0.148-0.435v-0.014zM10.883 21.43c0 0.11 0.021 0.194 0.062 0.252s0.1 0.086 0.177 0.086c0.075 0 0.133-0.028 0.175-0.085s0.063-0.149 0.063-0.275c0-0.108-0.021-0.191-0.063-0.25s-0.101-0.088-0.177-0.088c-0.075 0-0.134 0.029-0.175 0.088s-0.062 0.149-0.062 0.272zM12.227 20.558v0.284h0.197v0.226h-0.197v0.576c0 0.043 0.008 0.073 0.024 0.092s0.048 0.028 0.094 0.028c0.034 0 0.064-0.003 0.091-0.008v0.234c-0.055 0.018-0.119 0.028-0.185 0.028-0.001 0-0.001 0-0.002 0h0c-0.216 0-0.327-0.109-0.331-0.328v-0.622h-0.169v-0.226h0.169v-0.284h0.308zM12.516 21.408c0-0.115 0.022-0.217 0.066-0.306 0.042-0.088 0.107-0.159 0.188-0.207l0.002-0.001c0.083-0.049 0.18-0.074 0.289-0.074 0.156 0 0.283 0.048 0.381 0.143s0.154 0.225 0.165 0.388l0.002 0.079c0 0.177-0.049 0.319-0.148 0.427s-0.232 0.16-0.398 0.16-0.3-0.053-0.399-0.16c-0.099-0.107-0.148-0.252-0.148-0.435v-0.014zM12.825 21.43c0 0.11 0.021 0.194 0.062 0.252s0.1 0.086 0.177 0.086c0.075 0 0.133-0.028 0.175-0.085s0.063-0.149 0.063-0.275c0-0.108-0.021-0.191-0.063-0.25s-0.101-0.088-0.177-0.088c-0.075 0-0.134 0.029-0.175 0.088s-0.062 0.149-0.062 0.272zM14.425 21.677c0-0.038-0.019-0.067-0.057-0.088s-0.097-0.042-0.179-0.059c-0.275-0.058-0.412-0.174-0.412-0.35 0-0.103 0.042-0.188 0.127-0.256s0.197-0.104 0.334-0.104c0.146 0 0.264 0.035 0.351 0.104s0.132 0.159 0.132 0.269h-0.308c0-0.001 0-0.003 0-0.005 0-0.041-0.016-0.077-0.043-0.104v0c-0.028-0.029-0.073-0.044-0.133-0.044-0.052 0-0.092 0.012-0.12 0.035-0.026 0.020-0.043 0.052-0.043 0.087 0 0.001 0 0.002 0 0.002v-0c0 0.034 0.016 0.062 0.048 0.083s0.087 0.039 0.164 0.054c0.077 0.015 0.142 0.032 0.194 0.051 0.163 0.060 0.244 0.163 0.244 0.31 0 0.105-0.045 0.191-0.136 0.256s-0.207 0.097-0.35 0.097c-0.097 0-0.183-0.017-0.258-0.051s-0.133-0.082-0.176-0.142c-0.040-0.054-0.064-0.122-0.064-0.195v-0h0.292c0.003 0.055 0.023 0.097 0.061 0.126s0.088 0.044 0.151 0.044c0.059 0 0.104-0.011 0.133-0.033 0.028-0.019 0.046-0.051 0.046-0.087 0-0.001 0-0.001 0-0.002v0zM15.226 20.967c0.082-0.098 0.184-0.147 0.308-0.147 0.25 0 0.377 0.145 0.381 0.436v0.739h-0.308v-0.731c0-0.066-0.014-0.115-0.043-0.146s-0.076-0.048-0.142-0.048c-0.090 0-0.156 0.035-0.196 0.105v0.821h-0.308v-1.639h0.308v0.61zM16.099 21.408c0-0.115 0.022-0.217 0.066-0.306 0.042-0.088 0.108-0.159 0.188-0.207l0.002-0.001c0.083-0.049 0.18-0.074 0.289-0.074 0.156 0 0.283 0.048 0.381 0.143s0.154 0.225 0.165 0.388l0.002 0.079c0 0.177-0.049 0.319-0.148 0.427s-0.232 0.16-0.398 0.16-0.3-0.053-0.399-0.16c-0.099-0.107-0.148-0.252-0.148-0.435v-0.014zM16.408 21.43c0 0.11 0.021 0.194 0.062 0.252s0.1 0.086 0.177 0.086c0.075 0 0.133-0.028 0.175-0.085s0.063-0.149 0.063-0.275c0-0.108-0.021-0.191-0.063-0.25s-0.101-0.088-0.177-0.088c-0.075 0-0.134 0.029-0.175 0.088s-0.062 0.149-0.062 0.272zM18.422 21.429c0 0.178-0.041 0.32-0.122 0.428s-0.189 0.16-0.327 0.16c-0.117 0-0.211-0.041-0.283-0.122v0.544h-0.308v-1.598h0.286l0.011 0.113c0.075-0.090 0.172-0.134 0.292-0.134 0.142 0 0.253 0.053 0.332 0.158s0.118 0.25 0.118 0.435v0.016zM18.114 21.407c0-0.107-0.019-0.19-0.058-0.249s-0.093-0.088-0.165-0.088c-0.097 0-0.163 0.037-0.2 0.111v0.473c0.038 0.076 0.105 0.114 0.202 0.114 0.147 0 0.221-0.12 0.221-0.362z"></path>
<path fill="#070707" style="fill: var(--color4, #070707)" d="M1.93 28.409c0.048-0.142 0.248-0.142 0.296 0l0.283 0.845c0.021 0.062 0.079 0.107 0.148 0.107h0.905c0.152 0 0.214 0.196 0.090 0.284l-0.724 0.51c-0.040 0.029-0.066 0.075-0.066 0.128 0 0.018 0.003 0.035 0.008 0.051l-0-0.001 0.278 0.832c0.048 0.143-0.115 0.264-0.238 0.177l-0.743-0.523c-0.025-0.018-0.056-0.028-0.090-0.028s-0.065 0.011-0.090 0.029l0-0-0.742 0.523c-0.123 0.087-0.286-0.034-0.238-0.177l0.279-0.832c0.005-0.015 0.008-0.032 0.008-0.050 0-0.052-0.026-0.099-0.066-0.127l-0-0-0.724-0.51c-0.124-0.088-0.062-0.284 0.090-0.284h0.905c0.068-0 0.127-0.044 0.148-0.106l0-0.001 0.283-0.845zM7.525 28.409c0.047-0.142 0.248-0.142 0.296 0l0.283 0.845c0.021 0.062 0.079 0.107 0.148 0.107h0.905c0.152 0 0.214 0.196 0.090 0.284l-0.724 0.51c-0.040 0.029-0.066 0.075-0.066 0.128 0 0.018 0.003 0.035 0.008 0.051l-0-0.001 0.278 0.832c0.048 0.143-0.115 0.264-0.238 0.177l-0.742-0.523c-0.025-0.018-0.056-0.028-0.090-0.028s-0.065 0.011-0.090 0.029l0-0-0.742 0.523c-0.123 0.087-0.286-0.034-0.238-0.177l0.278-0.832c0.005-0.015 0.008-0.032 0.008-0.050 0-0.052-0.026-0.099-0.066-0.127l-0-0-0.724-0.51c-0.125-0.088-0.062-0.284 0.090-0.284h0.905c0.068-0 0.127-0.044 0.148-0.106l0-0.001 0.283-0.845zM13.12 28.409c0.047-0.142 0.248-0.142 0.296 0l0.283 0.845c0.021 0.062 0.079 0.107 0.148 0.107h0.905c0.152 0 0.214 0.196 0.090 0.284l-0.724 0.51c-0.040 0.029-0.066 0.075-0.066 0.128 0 0.018 0.003 0.035 0.008 0.051l-0-0.001 0.278 0.832c0.048 0.143-0.115 0.264-0.238 0.177l-0.742-0.523c-0.025-0.018-0.056-0.028-0.090-0.028s-0.065 0.011-0.090 0.029l0.001-0-0.743 0.523c-0.123 0.087-0.286-0.034-0.238-0.177l0.278-0.832c0.005-0.015 0.008-0.032 0.008-0.050 0-0.052-0.026-0.099-0.066-0.127l-0-0-0.724-0.51c-0.124-0.088-0.062-0.284 0.090-0.284h0.905c0.068-0 0.127-0.044 0.148-0.106l0-0.001 0.283-0.845zM18.715 28.409c0.047-0.142 0.248-0.142 0.296 0l0.283 0.845c0.021 0.062 0.079 0.107 0.148 0.107h0.905c0.152 0 0.214 0.196 0.090 0.284l-0.724 0.51c-0.040 0.029-0.066 0.075-0.066 0.128 0 0.018 0.003 0.035 0.008 0.051l-0-0.001 0.278 0.832c0.048 0.143-0.115 0.264-0.238 0.177l-0.742-0.523c-0.025-0.018-0.056-0.028-0.090-0.028s-0.065 0.011-0.090 0.029l0-0-0.742 0.523c-0.123 0.087-0.286-0.034-0.238-0.177l0.278-0.832c0.005-0.015 0.008-0.032 0.008-0.050 0-0.052-0.026-0.099-0.066-0.127l-0-0-0.724-0.51c-0.125-0.088-0.062-0.284 0.090-0.284h0.905c0.067 0 0.127-0.043 0.148-0.107l0.283-0.845z"></path>
<path fill="#e5e5e5" style="fill: var(--color5, #e5e5e5)" d="M24.31 28.409c0.047-0.142 0.248-0.142 0.296 0l0.283 0.845c0.021 0.064 0.081 0.107 0.148 0.107h0.905c0.152 0 0.214 0.196 0.090 0.284l-0.724 0.51c-0.040 0.029-0.066 0.075-0.066 0.128 0 0.018 0.003 0.035 0.008 0.051l-0-0.001 0.279 0.832c0.048 0.143-0.115 0.264-0.238 0.177l-0.742-0.523c-0.025-0.018-0.056-0.028-0.090-0.028s-0.065 0.011-0.090 0.029l0-0-0.743 0.523c-0.123 0.087-0.286-0.034-0.238-0.177l0.278-0.832c0.005-0.015 0.008-0.032 0.008-0.050 0-0.052-0.026-0.099-0.066-0.127l-0-0-0.724-0.51c-0.125-0.088-0.062-0.284 0.090-0.284h0.905c0.068-0 0.127-0.044 0.148-0.106l0-0.001 0.283-0.845z"></path>
</symbol>
<symbol id="icon-fig" viewBox="0 0 27 32">
<path fill="#828282" style="fill: var(--color1, #828282)" d="M11.622 18.943h-0.615v0.635h-0.32v-1.554h1.011v0.259h-0.691v0.401h0.615v0.258zM12.19 19.578h-0.31v-1.155h0.31v1.155zM11.862 18.125c0-0.046 0.015-0.084 0.046-0.114s0.074-0.045 0.127-0.045c0.053 0 0.095 0.015 0.126 0.045s0.047 0.068 0.047 0.114c0 0.001 0 0.003 0 0.005 0 0.044-0.018 0.083-0.048 0.11l-0 0c-0.031 0.030-0.073 0.045-0.125 0.045s-0.094-0.015-0.126-0.045c-0.029-0.028-0.047-0.067-0.047-0.11 0-0.002 0-0.004 0-0.005v0zM12.4 18.993c0-0.177 0.042-0.32 0.126-0.428s0.198-0.162 0.341-0.162c0.127 0 0.225 0.043 0.296 0.13l0.013-0.109h0.28v1.116c0 0.101-0.023 0.189-0.069 0.264s-0.112 0.133-0.191 0.17l-0.003 0.001c-0.083 0.039-0.181 0.059-0.292 0.059-0.089-0-0.175-0.019-0.252-0.053l0.004 0.002c-0.080-0.033-0.141-0.077-0.182-0.13l0.137-0.188c0.077 0.086 0.17 0.129 0.28 0.129 0.082 0 0.145-0.022 0.191-0.066s0.068-0.105 0.068-0.186v-0.062c-0.071 0.080-0.165 0.121-0.281 0.121-0.139 0-0.251-0.054-0.337-0.162s-0.128-0.253-0.128-0.432v-0.013zM12.708 19.015c0 0.105 0.021 0.187 0.063 0.247s0.1 0.088 0.173 0.088c0.094 0 0.161-0.035 0.202-0.106v-0.485c-0.041-0.070-0.108-0.106-0.2-0.106-0.074 0-0.132 0.030-0.175 0.091s-0.063 0.151-0.063 0.271zM13.982 18.424l0.010 0.129c0.082-0.1 0.192-0.15 0.332-0.15 0.149 0 0.251 0.059 0.306 0.176 0.081-0.117 0.197-0.176 0.347-0.176 0.125 0 0.219 0.037 0.28 0.11s0.092 0.182 0.092 0.329v0.737h-0.309v-0.736c0-0.065-0.013-0.113-0.039-0.143s-0.071-0.046-0.136-0.046c-0.092 0-0.156 0.044-0.192 0.132l0.001 0.793h-0.308v-0.735c0-0.067-0.013-0.115-0.040-0.145s-0.071-0.045-0.134-0.045c-0.087 0-0.151 0.036-0.19 0.109v0.816h-0.308v-1.155h0.289zM16.255 19.578c-0.015-0.030-0.026-0.065-0.031-0.102l-0-0.002c-0.075 0.083-0.172 0.125-0.291 0.125-0.113 0-0.207-0.033-0.282-0.098-0.068-0.058-0.111-0.145-0.111-0.241 0-0.002 0-0.005 0-0.007v0c0-0.122 0.045-0.216 0.136-0.282s0.222-0.099 0.394-0.099h0.142v-0.066c0-0.053-0.014-0.096-0.042-0.128s-0.070-0.048-0.129-0.048c-0.052 0-0.093 0.012-0.123 0.037s-0.044 0.059-0.044 0.102h-0.308c0-0.067 0.021-0.129 0.062-0.186s0.1-0.101 0.175-0.133c0.075-0.033 0.16-0.049 0.254-0.049 0.142 0 0.255 0.036 0.338 0.108s0.126 0.171 0.126 0.301v0.5c0.001 0.11 0.016 0.192 0.046 0.249v0.018h-0.312zM16 19.364c0.045 0 0.087-0.010 0.126-0.030s0.067-0.048 0.085-0.082v-0.198h-0.115c-0.154 0-0.236 0.053-0.246 0.16l-0.001 0.018c0 0.038 0.014 0.070 0.041 0.095s0.064 0.037 0.111 0.037z"></path>
<path fill="#0acf83" style="fill: var(--color8, #0acf83)" d="M11.352 13.873c1.281 0 2.321-1.035 2.321-2.311v-2.311h-2.321c-1.282 0-2.321 1.035-2.321 2.311s1.040 2.311 2.321 2.311z"></path>
<path fill="#a259ff" style="fill: var(--color9, #a259ff)" d="M9.031 6.936c0-1.276 1.040-2.311 2.321-2.311h2.321v4.625h-2.321c-1.282-0.003-2.321-1.038-2.321-2.314z"></path>
<path fill="#f24e1e" style="fill: var(--color10, #f24e1e)" d="M9.031 2.311c0-1.276 1.040-2.311 2.321-2.311h2.321v4.625h-2.321c-1.282 0-2.321-1.038-2.321-2.314z"></path>
<path fill="#ff7262" style="fill: var(--color11, #ff7262)" d="M13.676 0h2.321c1.281 0 2.321 1.035 2.321 2.311s-1.039 2.311-2.321 2.311h-2.321v-4.622z"></path>
<path fill="#1abcfe" style="fill: var(--color12, #1abcfe)" d="M18.318 6.936c0 1.276-1.039 2.311-2.321 2.311s-2.321-1.035-2.321-2.311c0-1.276 1.039-2.311 2.321-2.311s2.321 1.035 2.321 2.311z"></path>
<path fill="#070707" style="fill: var(--color4, #070707)" d="M1.93 28.392c0.047-0.142 0.249-0.142 0.296 0l0.283 0.849c0.021 0.063 0.080 0.107 0.148 0.107 0 0 0 0 0 0h0.907c0.152 0 0.214 0.195 0.090 0.283l-0.727 0.515c-0.040 0.029-0.066 0.075-0.066 0.127 0 0.018 0.003 0.035 0.008 0.050l-0-0.001 0.279 0.838c0.048 0.143-0.115 0.264-0.238 0.177l-0.742-0.526c-0.025-0.018-0.056-0.029-0.090-0.029s-0.065 0.011-0.091 0.029l0-0-0.742 0.526c-0.123 0.087-0.286-0.034-0.238-0.177l0.279-0.838c0.005-0.015 0.008-0.032 0.008-0.049 0-0.052-0.026-0.099-0.065-0.127l-0-0-0.727-0.515c-0.124-0.088-0.062-0.283 0.090-0.283h0.907c0 0 0 0 0 0 0.069 0 0.127-0.044 0.148-0.106l0-0.001 0.283-0.849zM7.525 28.392c0.047-0.142 0.249-0.142 0.296 0l0.283 0.849c0.021 0.063 0.080 0.107 0.148 0.107 0 0 0 0 0 0h0.907c0.152 0 0.214 0.195 0.090 0.283l-0.727 0.515c-0.040 0.029-0.066 0.075-0.066 0.127 0 0.018 0.003 0.035 0.008 0.050l-0-0.001 0.279 0.838c0.048 0.143-0.115 0.264-0.238 0.177l-0.742-0.526c-0.025-0.018-0.056-0.029-0.090-0.029s-0.065 0.011-0.091 0.029l0-0-0.742 0.526c-0.123 0.087-0.286-0.034-0.238-0.177l0.279-0.838c0.005-0.015 0.008-0.032 0.008-0.049 0-0.052-0.026-0.099-0.065-0.127l-0-0-0.727-0.515c-0.124-0.088-0.062-0.283 0.090-0.283h0.907c0 0 0 0 0 0 0.069 0 0.127-0.044 0.148-0.106l0-0.001 0.283-0.849zM13.12 28.392c0.047-0.142 0.249-0.142 0.296 0l0.283 0.849c0.021 0.063 0.080 0.107 0.148 0.107 0 0 0 0 0 0h0.907c0.152 0 0.214 0.195 0.090 0.283l-0.727 0.515c-0.040 0.029-0.066 0.075-0.066 0.127 0 0.018 0.003 0.035 0.008 0.050l-0-0.001 0.279 0.838c0.048 0.143-0.115 0.264-0.238 0.177l-0.742-0.526c-0.025-0.018-0.056-0.029-0.090-0.029s-0.065 0.011-0.091 0.029l0-0-0.742 0.526c-0.123 0.087-0.286-0.034-0.238-0.177l0.279-0.838c0.005-0.015 0.008-0.032 0.008-0.049 0-0.052-0.026-0.099-0.066-0.127l-0-0-0.727-0.515c-0.124-0.088-0.062-0.283 0.090-0.283h0.907c0 0 0 0 0 0 0.069 0 0.127-0.044 0.148-0.106l0-0.001 0.283-0.849zM18.715 28.392c0.047-0.142 0.249-0.142 0.296 0l0.283 0.849c0.021 0.063 0.080 0.107 0.148 0.107 0 0 0 0 0 0h0.907c0.152 0 0.214 0.195 0.090 0.283l-0.727 0.515c-0.040 0.029-0.066 0.075-0.066 0.127 0 0.018 0.003 0.035 0.008 0.050l-0-0.001 0.279 0.838c0.048 0.143-0.115 0.264-0.238 0.177l-0.742-0.526c-0.025-0.018-0.056-0.029-0.090-0.029s-0.065 0.011-0.091 0.029l0-0-0.742 0.526c-0.123 0.087-0.286-0.034-0.238-0.177l0.279-0.838c0.005-0.015 0.008-0.032 0.008-0.049 0-0.052-0.026-0.099-0.065-0.127l-0-0-0.727-0.515c-0.124-0.088-0.062-0.283 0.090-0.283h0.907c0 0 0 0 0 0 0.069 0 0.127-0.044 0.148-0.106l0-0.001 0.283-0.849zM24.31 28.392c0.047-0.142 0.249-0.142 0.296 0l0.283 0.849c0.021 0.063 0.080 0.107 0.148 0.107 0 0 0 0 0 0h0.907c0.152 0 0.214 0.195 0.090 0.283l-0.727 0.515c-0.040 0.029-0.066 0.075-0.066 0.127 0 0.018 0.003 0.035 0.008 0.050l-0-0.001 0.279 0.838c0.048 0.143-0.115 0.264-0.238 0.177l-0.742-0.526c-0.025-0.018-0.056-0.029-0.090-0.029s-0.065 0.011-0.091 0.029l0-0-0.742 0.526c-0.123 0.087-0.286-0.034-0.238-0.177l0.279-0.838c0.005-0.015 0.008-0.032 0.008-0.049 0-0.052-0.026-0.099-0.065-0.127l-0-0-0.727-0.515c-0.124-0.088-0.062-0.283 0.090-0.283h0.907c0 0 0 0 0 0 0.069 0 0.127-0.044 0.148-0.106l0-0.001 0.283-0.849z"></path>
</symbol>
</defs>
</svg>
